<?xml version="1.0" encoding="utf-8"?>
<!-- Generator: Adobe Illustrator 16.0.0, SVG Export Plug-In . SVG Version: 6.00 Build 0)  -->
<!DOCTYPE svg PUBLIC "-//W3C//DTD SVG 1.1//EN" "http://www.w3.org/Graphics/SVG/1.1/DTD/svg11.dtd">
<svg version="1.1" id="Calque_1" xmlns="http://www.w3.org/2000/svg" xmlns:xlink="http://www.w3.org/1999/xlink" x="0px" y="0px"
	 width="201.866px" height="36.379px" viewBox="0 0 201.866 36.379" enable-background="new 0 0 201.866 36.379"
	 xml:space="preserve">
<g>
	<g>
		<g>
			<polygon points="5.785,1.248 0.189,1.248 0.189,35.548 20.953,35.548 20.953,30.432 5.785,30.432 			"/>
			<path d="M45.166,24.638c0,2.041-0.558,3.672-1.658,4.849c-1.109,1.185-2.494,1.761-4.232,1.761c-1.548,0-2.661-0.394-3.308-1.17
				c-0.662-0.796-0.999-2.142-0.999-4V9.792H29.47v17.342c0,2.902,0.794,5.15,2.36,6.682c1.564,1.532,3.746,2.308,6.485,2.308
				c1.389,0,2.771-0.318,4.108-0.945c1.045-0.49,1.964-1.139,2.742-1.935v2.304h5.499V9.792h-5.499V24.638z"/>
			<path d="M88.811,9.216c-1.646,0-3.215,0.359-4.665,1.068c-1.291,0.63-2.386,1.575-3.262,2.813
				c-1.417-2.576-3.817-3.881-7.146-3.881c-2.561,0-4.715,0.952-6.418,2.831V9.792h-5.499v25.756h5.499V21.086
				c0-2.084,0.531-3.804,1.58-5.109c1.043-1.301,2.327-1.933,3.926-1.933c1.118,0,1.976,0.268,2.546,0.795
				c0.582,0.539,0.982,1.355,1.19,2.426c0.219,1.126,0.33,2.654,0.33,4.541v13.742h5.5V21.086c0-2.084,0.531-3.803,1.578-5.109
				c1.045-1.301,2.329-1.933,3.928-1.933c1.118,0,1.976,0.268,2.546,0.795c0.581,0.538,0.981,1.354,1.19,2.426
				c0.219,1.126,0.33,2.654,0.33,4.541v13.742h5.499V19.214c0-3.142-0.737-5.616-2.192-7.353
				C93.799,10.106,91.625,9.216,88.811,9.216z"/>
			<rect x="108.381" y="9.792" width="5.499" height="25.756"/>
			<polygon points="138.662,7.084 134.816,1.254 127.898,1.254 133.64,7.084 			"/>
			<path d="M142,11.005c-1.748-1.187-3.865-1.789-6.293-1.789c-2.583,0-4.811,0.584-6.619,1.735
				c-1.812,1.152-3.196,2.761-4.115,4.782c-0.913,2.005-1.375,4.339-1.375,6.937c0,2.538,0.487,4.849,1.449,6.87
				c0.969,2.037,2.41,3.661,4.284,4.827c1.871,1.166,4.13,1.757,6.712,1.757c2.48,0,4.669-0.516,6.506-1.532
				c1.838-1.017,3.352-2.497,4.498-4.397l0.191-0.316l-4.62-2.45l-0.164,0.31c-0.577,1.093-1.408,1.984-2.47,2.651
				c-1.058,0.665-2.336,1.002-3.797,1.002c-2.161,0-3.859-0.648-5.048-1.928c-1.141-1.227-1.773-3.022-1.885-5.34h18.082V22.67
				c0-2.534-0.454-4.834-1.351-6.839C145.084,13.812,143.743,12.189,142,11.005z M135.659,13.9c1.749,0,3.159,0.53,4.191,1.575
				c0.973,0.989,1.564,2.418,1.761,4.252H129.33c0.228-1.803,0.863-3.222,1.894-4.223C132.318,14.44,133.812,13.9,135.659,13.9z"/>
			<path d="M168.875,9.216c-1.377,0-2.726,0.432-4.01,1.283c-0.958,0.634-1.797,1.486-2.505,2.541V9.792h-5.499v25.756h5.499V23.583
				c0-3.158,0.606-5.412,1.803-6.698c1.189-1.279,2.871-1.928,4.987-1.929l1.85,0.06V9.35l-0.311-0.035
				C170.103,9.249,169.492,9.216,168.875,9.216z"/>
			<path d="M201.336,22.67c0-2.534-0.454-4.834-1.351-6.839c-0.902-2.019-2.243-3.642-3.986-4.826
				c-1.748-1.187-3.865-1.789-6.293-1.789c-2.583,0-4.811,0.584-6.619,1.735c-1.812,1.152-3.196,2.761-4.115,4.782
				c-0.913,2.005-1.375,4.339-1.375,6.937c0,2.538,0.487,4.849,1.449,6.87c0.969,2.037,2.41,3.661,4.284,4.827
				c1.871,1.166,4.13,1.757,6.712,1.757c2.48,0,4.669-0.516,6.506-1.532c1.838-1.017,3.352-2.497,4.498-4.397l0.191-0.316
				l-4.62-2.45l-0.164,0.31c-0.577,1.093-1.408,1.984-2.47,2.651c-1.058,0.665-2.336,1.002-3.797,1.002
				c-2.161,0-3.859-0.648-5.048-1.928c-1.141-1.227-1.773-3.022-1.885-5.34h18.082V22.67z M189.658,13.9
				c1.749,0,3.159,0.53,4.191,1.575c0.973,0.989,1.564,2.418,1.761,4.252h-12.281c0.228-1.803,0.863-3.222,1.894-4.223
				C186.317,14.44,187.811,13.9,189.658,13.9z"/>
		</g>
		<g>
			<defs>
				<path id="SVGID_1_" d="M5.896,30.378l16.063-0.499l-0.625,6.125L0,35.879L0.189,1.248h5.596L5.896,30.378z M45.166,24.638
					c0,2.041-0.668,3.408-1.769,4.584c-1.109,1.185-2.418,1.625-4.156,1.625c-1.548,0-2.479-0.067-3.125-0.844
					c-0.662-0.796-1.147-2.067-1.147-3.926V9.792H29.47v17.342c0,2.902,0.674,5.495,2.24,7.026c1.564,1.532,3.761,2.125,6.5,2.125
					c1.389,0,2.882-0.217,4.219-0.844c1.045-0.49,1.784-1.048,2.562-1.844l0.094,2.156l5.625-0.031L50.665,9.792h-5.499V24.638z
					 M88.811,9.216c-1.646,0-3.215,0.359-4.665,1.068c-1.291,0.63-2.386,1.575-3.262,2.813c-1.417-2.576-3.817-3.881-7.146-3.881
					c-2.561,0-4.715,0.952-6.418,2.831V9.792h-5.499L61.71,35.66l5.906-0.031L67.32,21.086c0-2.084,0.531-3.804,1.58-5.109
					c1.043-1.301,2.327-1.933,3.926-1.933c1.118,0,1.976,0.268,2.546,0.795c0.582,0.539,0.982,1.355,1.19,2.426
					c0.219,1.126,0.33,2.654,0.33,4.541l-0.183,14.01l6.125-0.125l-0.442-14.605c0-2.084,0.531-3.803,1.578-5.109
					c1.045-1.301,2.329-1.933,3.928-1.933c1.118,0,1.976,0.268,2.546,0.795c0.581,0.538,0.981,1.354,1.19,2.426
					c0.219,1.126,0.33,2.654,0.33,4.541l-0.161,13.823l5.781,0.094l-0.121-16.508c0-3.142-0.737-5.616-2.192-7.353
					C93.799,10.106,91.625,9.216,88.811,9.216z M108.179,35.66h5.906L113.88,9.792h-5.499L108.179,35.66z M111.178,0
					c-0.955,0-1.789,0.35-2.479,1.039c-0.689,0.689-1.039,1.508-1.039,2.432c0,0.958,0.351,1.786,1.042,2.458
					c0.688,0.671,1.521,1.012,2.476,1.012c0.955,0,1.788-0.34,2.477-1.011c0.691-0.673,1.041-1.5,1.041-2.459
					c0-0.926-0.358-1.745-1.065-2.435C112.924,0.349,112.099,0,111.178,0z M145.986,15.831c0.896,2.005,1.351,4.306,1.351,6.839
					v1.454h-18.082c0.111,2.318,0.744,4.113,1.885,5.34c1.188,1.28,2.887,1.928,5.048,1.928c1.461,0,2.739-0.337,3.797-1.002
					c1.062-0.667,1.893-1.558,2.47-2.651l0.164-0.31l4.62,2.45l-0.191,0.316c-1.146,1.901-2.562,3.542-4.399,4.559
					c-1.837,1.016-4.207,1.562-6.688,1.562c-2.582,0-4.754-0.553-6.625-1.719c-1.874-1.166-3.319-3.021-4.288-5.057
					c-0.962-2.021-1.449-4.332-1.449-6.87c0-2.598,0.462-4.932,1.375-6.937c0.919-2.021,2.304-3.63,4.115-4.782
					c1.809-1.151,4.036-1.735,6.619-1.735c2.428,0,4.545,0.602,6.293,1.789C143.743,12.189,145.084,13.812,145.986,15.831z
					 M131.224,15.505c-1.03,1-1.666,2.42-1.894,4.223h12.281c-0.196-1.834-0.788-3.264-1.761-4.252
					c-1.032-1.045-2.442-1.575-4.191-1.575C133.812,13.9,132.318,14.44,131.224,15.505z M168.875,9.216
					c-1.377,0-2.726,0.432-4.01,1.283c-0.958,0.634-1.797,1.486-2.505,2.541V9.792h-5.499l-0.089,25.899l5.688,0.062l-0.1-12.171
					c0-3.158,0.606-5.412,1.803-6.698c1.189-1.279,2.871-1.928,4.987-1.929l1.85,0.06V9.35l-0.311-0.035
					C170.103,9.249,169.492,9.216,168.875,9.216z M201.336,24.124h-18.082c0.111,2.318,1.065,3.841,2.206,5.067
					c1.188,1.28,2.339,1.781,4.5,1.781c1.461,0,2.724-0.085,3.781-0.75c1.062-0.667,1.86-1.376,2.438-2.469l0.406-0.969l5.281,3.156
					l-0.719,0.656c-1.146,1.901-2.225,3.17-4.062,4.188c-1.837,1.016-4.551,1.594-7.031,1.594c-2.582,0-4.973-0.647-6.844-1.812
					c-1.874-1.166-3.469-2.682-4.438-4.719c-0.962-2.021-1.176-4.639-1.176-7.177c0-2.598,0.462-4.932,1.375-6.937
					c0.919-2.021,2.304-3.63,4.115-4.782c1.809-1.151,4.036-1.735,6.619-1.735c2.428,0,4.545,0.602,6.293,1.789
					c1.743,1.184,3.084,2.808,3.986,4.826c0.896,2.005,1.351,4.306,1.351,6.839V24.124z M185.223,15.505
					c-1.03,1-1.666,2.42-1.894,4.223h12.281c-0.196-1.834-0.788-3.264-1.761-4.252c-1.032-1.045-2.442-1.575-4.191-1.575
					C187.811,13.9,186.317,14.44,185.223,15.505z"/>
			</defs>
			<clipPath id="SVGID_2_">
				<use xlink:href="#SVGID_1_"  overflow="visible"/>
			</clipPath>
			<g clip-path="url(#SVGID_2_)">
				<defs>
					<filter id="Adobe_OpacityMaskFilter" filterUnits="userSpaceOnUse" x="-12.458" y="27.779" width="247" height="55.333">
						<feFlood  style="flood-color:white;flood-opacity:1" result="back"/>
						<feBlend  in="SourceGraphic" in2="back" mode="normal"/>
					</filter>
				</defs>
				<mask maskUnits="userSpaceOnUse" x="-12.458" y="27.779" width="247" height="55.333" id="SVGID_3_">
					<g filter="url(#Adobe_OpacityMaskFilter)">
						
							<image overflow="visible" width="1046" height="248" xlink:href="BD4EA3FC117CB228.jpg"  transform="matrix(0.24 0 0 0.24 -14.458 25.7793)">
						</image>
					</g>
				</mask>
				<g mask="url(#SVGID_3_)">
					<rect x="-12.458" y="27.779" fill="#FFFFFF" width="247" height="55.333"/>
				</g>
			</g>
		</g>
	</g>
	<circle cx="111.124" cy="3.94" r="2.709"/>
</g>
</svg>
